<svg id="visual" viewBox="0 0 900 600" width="900" height="600" xmlns="http://www.w3.org/2000/svg" xmlns:xlink="http://www.w3.org/1999/xlink" version="1.1"><rect x="0" y="0" width="900" height="600" fill="#020421"></rect><path d="M593 600L571 580C549 560 505 520 488.3 480C471.7 440 482.3 400 513.8 360C545.3 320 597.7 280 623.3 240C649 200 648 160 624.5 120C601 80 555 40 532 20L509 0L900 0L900 20C900 40 900 80 900 120C900 160 900 200 900 240C900 280 900 320 900 360C900 400 900 440 900 480C900 520 900 560 900 580L900 600Z" fill="#00db80"></path><path d="M539 600L554.7 580C570.3 560 601.7 520 621.7 480C641.7 440 650.3 400 628 360C605.7 320 552.3 280 534 240C515.7 200 532.3 160 554 120C575.7 80 602.3 40 615.7 20L629 0L900 0L900 20C900 40 900 80 900 120C900 160 900 200 900 240C900 280 900 320 900 360C900 400 900 440 900 480C900 520 900 560 900 580L900 600Z" fill="#00c29d"></path><path d="M564 600L593 580C622 560 680 520 682.5 480C685 440 632 400 619.5 360C607 320 635 280 661.2 240C687.3 200 711.7 160 723.2 120C734.7 80 733.3 40 732.7 20L732 0L900 0L900 20C900 40 900 80 900 120C900 160 900 200 900 240C900 280 900 320 900 360C900 400 900 440 900 480C900 520 900 560 900 580L900 600Z" fill="#00a7aa"></path><path d="M760 600L756.7 580C753.3 560 746.7 520 733.7 480C720.7 440 701.3 400 686.5 360C671.7 320 661.3 280 674.5 240C687.7 200 724.3 160 716.8 120C709.3 80 657.7 40 631.8 20L606 0L900 0L900 20C900 40 900 80 900 120C900 160 900 200 900 240C900 280 900 320 900 360C900 400 900 440 900 480C900 520 900 560 900 580L900 600Z" fill="#008aa5"></path><path d="M639 600L664.3 580C689.7 560 740.3 520 743.3 480C746.3 440 701.7 400 679 360C656.3 320 655.7 280 674 240C692.3 200 729.7 160 751.3 120C773 80 779 40 782 20L785 0L900 0L900 20C900 40 900 80 900 120C900 160 900 200 900 240C900 280 900 320 900 360C900 400 900 440 900 480C900 520 900 560 900 580L900 600Z" fill="#006d8e"></path><path d="M764 600L757.3 580C750.7 560 737.3 520 735.5 480C733.7 440 743.3 400 754.8 360C766.3 320 779.7 280 776.7 240C773.7 200 754.3 160 748 120C741.7 80 748.3 40 751.7 20L755 0L900 0L900 20C900 40 900 80 900 120C900 160 900 200 900 240C900 280 900 320 900 360C900 400 900 440 900 480C900 520 900 560 900 580L900 600Z" fill="#085273"></path><path d="M827 600L827 580C827 560 827 520 823.2 480C819.3 440 811.7 400 810 360C808.3 320 812.7 280 810.8 240C809 200 801 160 796.7 120C792.3 80 791.7 40 791.3 20L791 0L900 0L900 20C900 40 900 80 900 120C900 160 900 200 900 240C900 280 900 320 900 360C900 400 900 440 900 480C900 520 900 560 900 580L900 600Z" fill="#0c3858"></path><path d="M816 600L821.3 580C826.7 560 837.3 520 831.2 480C825 440 802 400 798 360C794 320 809 280 824.2 240C839.3 200 854.7 160 859.7 120C864.7 80 859.3 40 856.7 20L854 0L900 0L900 20C900 40 900 80 900 120C900 160 900 200 900 240C900 280 900 320 900 360C900 400 900 440 900 480C900 520 900 560 900 580L900 600Z" fill="#09203c"></path><path d="M886 600L884.3 580C882.7 560 879.3 520 881.3 480C883.3 440 890.7 400 883.3 360C876 320 854 280 850.5 240C847 200 862 160 871 120C880 80 883 40 884.5 20L886 0L900 0L900 20C900 40 900 80 900 120C900 160 900 200 900 240C900 280 900 320 900 360C900 400 900 440 900 480C900 520 900 560 900 580L900 600Z" fill="#020421"></path></svg>