<svg xmlns="http://www.w3.org/2000/svg" version="1.1" xmlns:xlink="http://www.w3.org/1999/xlink" xmlns:svgjs="http://svgjs.dev/svgjs" viewBox="0 0 800 800"><defs><linearGradient x1="50%" y1="0%" x2="50%" y2="100%" id="ffflurry-grad" gradientTransform="rotate(270)"><stop stop-color="#020420" stop-opacity="1" offset="0%"></stop><stop stop-color="#00dc82" stop-opacity="1" offset="45%"></stop><stop stop-color="hsl(155, 100%, 50%)" stop-opacity="1" offset="100%"></stop></linearGradient></defs><rect width="100%" height="100%" fill="#020420"></rect><g fill="url(#ffflurry-grad)"><rect width="208" height="2" x="154" y="700" rx="1" transform="rotate(0, 258, 701)" opacity="0.36"></rect><rect width="119" height="2" x="478.5" y="710" rx="1" transform="rotate(0, 538, 711)" opacity="0.20"></rect><rect width="71" height="2" x="65.5" y="502" rx="1" transform="rotate(0, 101, 503)" opacity="0.49"></rect><rect width="489" height="2" x="-77.5" y="50" rx="1" transform="rotate(0, 167, 51)" opacity="0.08"></rect><rect width="165" height="2" x="564.5" y="500" rx="1" transform="rotate(0, 647, 501)" opacity="0.22"></rect><rect width="167" height="2" x="591.5" y="737" rx="1" transform="rotate(0, 675, 738)" opacity="0.70"></rect><rect width="600" height="2" x="157" y="416" rx="1" transform="rotate(0, 457, 417)" opacity="0.77"></rect><rect width="192" height="2" x="317" y="652" rx="1" transform="rotate(0, 413, 653)" opacity="0.75"></rect><rect width="150" height="2" x="153" y="17" rx="1" transform="rotate(0, 228, 18)" opacity="0.16"></rect><rect width="470" height="2" x="155" y="301" rx="1" transform="rotate(0, 390, 302)" opacity="0.50"></rect><rect width="67" height="2" x="655.5" y="780" rx="1" transform="rotate(0, 689, 781)" opacity="0.20"></rect><rect width="397" height="2" x="494.5" y="111" rx="1" transform="rotate(0, 693, 112)" opacity="0.74"></rect><rect width="57" height="2" x="224.5" y="478" rx="1" transform="rotate(0, 253, 479)" opacity="0.56"></rect><rect width="37" height="2" x="219.5" y="73" rx="1" transform="rotate(0, 238, 74)" opacity="0.22"></rect><rect width="301" height="2" x="131.5" y="623" rx="1" transform="rotate(0, 282, 624)" opacity="0.65"></rect><rect width="284" height="2" x="359" y="201" rx="1" transform="rotate(0, 501, 202)" opacity="1.00"></rect><rect width="253" height="2" x="313.5" y="491" rx="1" transform="rotate(0, 440, 492)" opacity="0.60"></rect><rect width="143" height="2" x="318.5" y="85" rx="1" transform="rotate(0, 390, 86)" opacity="0.08"></rect><rect width="82" height="2" x="724" y="406" rx="1" transform="rotate(0, 765, 407)" opacity="0.59"></rect><rect width="180" height="2" x="28" y="682" rx="1" transform="rotate(0, 118, 683)" opacity="0.34"></rect><rect width="284" height="2" x="492" y="20" rx="1" transform="rotate(0, 634, 21)" opacity="0.57"></rect><rect width="358" height="2" x="369" y="582" rx="1" transform="rotate(0, 548, 583)" opacity="0.92"></rect><rect width="396" height="2" x="372" y="288" rx="1" transform="rotate(0, 570, 289)" opacity="0.67"></rect><rect width="123" height="2" x="202.5" y="527" rx="1" transform="rotate(0, 264, 528)" opacity="0.65"></rect><rect width="103" height="2" x="466.5" y="321" rx="1" transform="rotate(0, 518, 322)" opacity="0.91"></rect><rect width="434" height="2" x="176" y="155" rx="1" transform="rotate(0, 393, 156)" opacity="0.10"></rect><rect width="173" height="2" x="644.5" y="33" rx="1" transform="rotate(0, 731, 34)" opacity="0.97"></rect><rect width="455" height="2" x="428.5" y="310" rx="1" transform="rotate(0, 656, 311)" opacity="0.45"></rect><rect width="274" height="2" x="-97" y="419" rx="1" transform="rotate(0, 40, 420)" opacity="0.83"></rect><rect width="521" height="2" x="-221.5" y="699" rx="1" transform="rotate(0, 39, 700)" opacity="0.85"></rect><rect width="433" height="2" x="555.5" y="73" rx="1" transform="rotate(0, 772, 74)" opacity="0.99"></rect><rect width="372" height="2" x="410" y="716" rx="1" transform="rotate(0, 596, 717)" opacity="0.81"></rect><rect width="568" height="2" x="-91" y="655" rx="1" transform="rotate(0, 193, 656)" opacity="0.10"></rect><rect width="507" height="2" x="-113.5" y="121" rx="1" transform="rotate(0, 140, 122)" opacity="0.78"></rect><rect width="92" height="2" x="83" y="419" rx="1" transform="rotate(0, 129, 420)" opacity="0.67"></rect><rect width="236" height="2" x="495" y="227" rx="1" transform="rotate(0, 613, 228)" opacity="0.12"></rect><rect width="129" height="2" x="150.5" y="185" rx="1" transform="rotate(0, 215, 186)" opacity="0.44"></rect><rect width="603" height="2" x="298.5" y="416" rx="1" transform="rotate(0, 600, 417)" opacity="0.82"></rect><rect width="180" height="2" x="-25" y="213" rx="1" transform="rotate(0, 65, 214)" opacity="0.39"></rect><rect width="582" height="2" x="22" y="55" rx="1" transform="rotate(0, 313, 56)" opacity="0.33"></rect><rect width="388" height="2" x="444" y="77" rx="1" transform="rotate(0, 638, 78)" opacity="0.68"></rect><rect width="263" height="2" x="234.5" y="499" rx="1" transform="rotate(0, 366, 500)" opacity="0.79"></rect><rect width="512" height="2" x="-99" y="753" rx="1" transform="rotate(0, 157, 754)" opacity="0.14"></rect><rect width="221" height="2" x="251.5" y="582" rx="1" transform="rotate(0, 362, 583)" opacity="0.26"></rect><rect width="201" height="2" x="305.5" y="233" rx="1" transform="rotate(0, 406, 234)" opacity="0.08"></rect><rect width="180" height="2" x="101" y="487" rx="1" transform="rotate(0, 191, 488)" opacity="0.77"></rect><rect width="125" height="2" x="-40.5" y="627" rx="1" transform="rotate(0, 22, 628)" opacity="0.42"></rect><rect width="85" height="2" x="-23.5" y="174" rx="1" transform="rotate(0, 19, 175)" opacity="0.29"></rect><rect width="355" height="2" x="477.5" y="635" rx="1" transform="rotate(0, 655, 636)" opacity="0.51"></rect><rect width="94" height="2" x="259" y="333" rx="1" transform="rotate(0, 306, 334)" opacity="0.49"></rect><rect width="756" height="2" x="368" y="183" rx="1" transform="rotate(0, 746, 184)" opacity="0.24"></rect><rect width="261" height="2" x="211.5" y="642" rx="1" transform="rotate(0, 342, 643)" opacity="0.35"></rect><rect width="450" height="2" x="-170" y="119" rx="1" transform="rotate(0, 55, 120)" opacity="0.79"></rect><rect width="86" height="2" x="580" y="762" rx="1" transform="rotate(0, 623, 763)" opacity="0.31"></rect><rect width="86" height="2" x="223" y="392" rx="1" transform="rotate(0, 266, 393)" opacity="0.62"></rect><rect width="339" height="2" x="377.5" y="378" rx="1" transform="rotate(0, 547, 379)" opacity="0.47"></rect><rect width="267" height="2" x="105.5" y="767" rx="1" transform="rotate(0, 239, 768)" opacity="0.69"></rect><rect width="160" height="2" x="472" y="772" rx="1" transform="rotate(0, 552, 773)" opacity="0.83"></rect><rect width="525" height="2" x="-2.5" y="133" rx="1" transform="rotate(0, 260, 134)" opacity="0.83"></rect><rect width="344" height="2" x="137" y="553" rx="1" transform="rotate(0, 309, 554)" opacity="0.08"></rect><rect width="364" height="2" x="219" y="23" rx="1" transform="rotate(0, 401, 24)" opacity="0.49"></rect><rect width="57" height="2" x="73.5" y="329" rx="1" transform="rotate(0, 102, 330)" opacity="0.10"></rect><rect width="324" height="2" x="409" y="645" rx="1" transform="rotate(0, 571, 646)" opacity="1.00"></rect><rect width="239" height="2" x="375.5" y="28" rx="1" transform="rotate(0, 495, 29)" opacity="0.12"></rect><rect width="222" height="2" x="24" y="594" rx="1" transform="rotate(0, 135, 595)" opacity="0.74"></rect><rect width="185" height="2" x="587.5" y="25" rx="1" transform="rotate(0, 680, 26)" opacity="0.96"></rect><rect width="292" height="2" x="620" y="615" rx="1" transform="rotate(0, 766, 616)" opacity="0.27"></rect><rect width="221" height="2" x="440.5" y="21" rx="1" transform="rotate(0, 551, 22)" opacity="0.41"></rect><rect width="123" height="2" x="572.5" y="686" rx="1" transform="rotate(0, 634, 687)" opacity="0.21"></rect><rect width="381" height="2" x="228.5" y="572" rx="1" transform="rotate(0, 419, 573)" opacity="0.35"></rect><rect width="304" height="2" x="187" y="766" rx="1" transform="rotate(0, 339, 767)" opacity="0.47"></rect><rect width="178" height="2" x="74" y="535" rx="1" transform="rotate(0, 163, 536)" opacity="0.35"></rect><rect width="44" height="2" x="517" y="484" rx="1" transform="rotate(0, 539, 485)" opacity="0.40"></rect><rect width="251" height="2" x="230.5" y="330" rx="1" transform="rotate(0, 356, 331)" opacity="0.24"></rect><rect width="181" height="2" x="480.5" y="76" rx="1" transform="rotate(0, 571, 77)" opacity="0.44"></rect><rect width="427" height="2" x="552.5" y="738" rx="1" transform="rotate(0, 766, 739)" opacity="0.23"></rect><rect width="168" height="2" x="114" y="236" rx="1" transform="rotate(0, 198, 237)" opacity="0.57"></rect><rect width="324" height="2" x="23" y="358" rx="1" transform="rotate(0, 185, 359)" opacity="0.84"></rect><rect width="382" height="2" x="519" y="690" rx="1" transform="rotate(0, 710, 691)" opacity="0.59"></rect><rect width="134" height="2" x="529" y="28" rx="1" transform="rotate(0, 596, 29)" opacity="0.34"></rect><rect width="442" height="2" x="-128" y="37" rx="1" transform="rotate(0, 93, 38)" opacity="0.23"></rect><rect width="113" height="2" x="489.5" y="137" rx="1" transform="rotate(0, 546, 138)" opacity="0.42"></rect><rect width="231" height="2" x="-89.5" y="46" rx="1" transform="rotate(0, 26, 47)" opacity="0.83"></rect><rect width="299" height="2" x="317.5" y="271" rx="1" transform="rotate(0, 467, 272)" opacity="0.39"></rect><rect width="211" height="2" x="177.5" y="199" rx="1" transform="rotate(0, 283, 200)" opacity="0.77"></rect><rect width="485" height="2" x="121.5" y="405" rx="1" transform="rotate(0, 364, 406)" opacity="0.46"></rect><rect width="189" height="2" x="653.5" y="290" rx="1" transform="rotate(0, 748, 291)" opacity="0.32"></rect><rect width="165" height="2" x="426.5" y="571" rx="1" transform="rotate(0, 509, 572)" opacity="0.17"></rect><rect width="51" height="2" x="187.5" y="429" rx="1" transform="rotate(0, 213, 430)" opacity="0.76"></rect><rect width="253" height="2" x="95.5" y="581" rx="1" transform="rotate(0, 222, 582)" opacity="0.64"></rect><rect width="242" height="2" x="232" y="704" rx="1" transform="rotate(0, 353, 705)" opacity="0.08"></rect><rect width="434" height="2" x="479" y="583" rx="1" transform="rotate(0, 696, 584)" opacity="0.58"></rect><rect width="214" height="2" x="364" y="557" rx="1" transform="rotate(0, 471, 558)" opacity="0.37"></rect><rect width="86" height="2" x="562" y="567" rx="1" transform="rotate(0, 605, 568)" opacity="0.60"></rect><rect width="157" height="2" x="231.5" y="459" rx="1" transform="rotate(0, 310, 460)" opacity="0.17"></rect><rect width="141" height="2" x="377.5" y="775" rx="1" transform="rotate(0, 448, 776)" opacity="0.33"></rect><rect width="163" height="2" x="96.5" y="284" rx="1" transform="rotate(0, 178, 285)" opacity="0.95"></rect><rect width="274" height="2" x="611" y="507" rx="1" transform="rotate(0, 748, 508)" opacity="0.65"></rect><rect width="303" height="2" x="487.5" y="164" rx="1" transform="rotate(0, 639, 165)" opacity="0.50"></rect><rect width="388" height="2" x="-60" y="204" rx="1" transform="rotate(0, 134, 205)" opacity="0.39"></rect><rect width="233" height="2" x="-58.5" y="765" rx="1" transform="rotate(0, 58, 766)" opacity="0.27"></rect><rect width="347" height="2" x="150.5" y="237" rx="1" transform="rotate(0, 324, 238)" opacity="0.22"></rect><rect width="68" height="2" x="441" y="91" rx="1" transform="rotate(0, 475, 92)" opacity="0.74"></rect><rect width="209" height="2" x="348.5" y="722" rx="1" transform="rotate(0, 453, 723)" opacity="0.10"></rect><rect width="476" height="2" x="249" y="652" rx="1" transform="rotate(0, 487, 653)" opacity="0.71"></rect><rect width="459" height="2" x="-159.5" y="601" rx="1" transform="rotate(0, 70, 602)" opacity="0.38"></rect><rect width="335" height="2" x="-131.5" y="296" rx="1" transform="rotate(0, 36, 297)" opacity="0.55"></rect><rect width="373" height="2" x="266.5" y="343" rx="1" transform="rotate(0, 453, 344)" opacity="0.74"></rect><rect width="306" height="2" x="-121" y="523" rx="1" transform="rotate(0, 32, 524)" opacity="0.74"></rect><rect width="65" height="2" x="219.5" y="309" rx="1" transform="rotate(0, 252, 310)" opacity="0.84"></rect><rect width="657" height="2" x="356.5" y="406" rx="1" transform="rotate(0, 685, 407)" opacity="0.29"></rect></g></svg>