<svg xmlns="http://www.w3.org/2000/svg" version="1.1" xmlns:xlink="http://www.w3.org/1999/xlink" xmlns:svgjs="http://svgjs.dev/svgjs" viewBox="0 0 800 400"><path d="M11.6487455368042,223.47669982910156C22.998805840810142,213.1720403035482,61.529274463653564,162.8434855143229,79.74910736083984,161.64874267578125C97.96894025802612,160.4539998372396,96.77419408162434,218.24969991048178,120.96774291992188,216.30824279785156C145.1612917582194,214.36678568522134,201.61290995279947,151.7921142578125,224.910400390625,150C248.20789082845053,148.2078857421875,240.59139506022134,206.1529286702474,260.752685546875,205.55555725097656C280.9139760335286,204.95818583170572,329.1517384847005,146.26642862955728,345.8781433105469,146.415771484375C362.60454813639325,146.56511433919272,344.0860239664714,206.75030008951822,361.1111145019531,206.4516143798828C378.1362050374349,206.1529286702474,430.4062245686849,145.07168579101562,448.0286865234375,144.6236572265625C465.6511484781901,144.17562866210938,451.0155436197917,204.5101572672526,466.84588623046875,203.76344299316406C482.6762288411458,203.01672871907553,524.7909138997396,139.99402872721353,543.0107421875,140.14337158203125C561.2305704752604,140.29271443684897,560.6331888834635,206.60095723470053,576.1648559570312,204.6595001220703C591.696523030599,202.7180430094401,623.2079060872396,129.24134318033853,636.2007446289062,128.49462890625C649.1935831705729,127.74791463216145,641.1290588378906,201.37395858764648,654.1218872070312,200.17921447753906C667.1147155761719,198.98447036743164,695.9378865559896,122.52090708414714,714.15771484375,121.32616424560547C732.3775431315104,120.1314214070638,749.5519714355469,193.6081288655599,763.4408569335938,193.01075744628906C777.3297424316406,192.41338602701822,791.8159993489584,130.28673934936523,797.4910278320312,117.74193572998047" fill="none" stroke-width="1" stroke="url(&quot;#SvgjsLinearGradient1002&quot;)" stroke-linecap="round" transform="matrix(1,0,-0.17632698070846498,1,30.083025884797507,0)" stroke-dasharray="0 0"></path><defs><linearGradient id="SvgjsLinearGradient1002"><stop stop-color="#00dc82" offset="0"></stop><stop stop-color="#00ff97" offset="1"></stop></linearGradient></defs></svg>