<svg xmlns="http://www.w3.org/2000/svg" version="1.1" xmlns:xlink="http://www.w3.org/1999/xlink" xmlns:svgjs="http://svgjs.dev/svgjs" viewBox="0 0 800 800" opacity="1"><defs><filter id="nnneon-filter" x="-100%" y="-100%" width="400%" height="400%" filterUnits="objectBoundingBox" primitiveUnits="userSpaceOnUse" color-interpolation-filters="sRGB">
	<feGaussianBlur stdDeviation="76 25" x="0%" y="0%" width="100%" height="100%" in="SourceGraphic" edgeMode="none" result="blur"></feGaussianBlur></filter><filter id="nnneon-filter2" x="-100%" y="-100%" width="400%" height="400%" filterUnits="objectBoundingBox" primitiveUnits="userSpaceOnUse" color-interpolation-filters="sRGB">
	<feGaussianBlur stdDeviation="0 18" x="0%" y="0%" width="100%" height="100%" in="SourceGraphic" edgeMode="none" result="blur"></feGaussianBlur></filter></defs><g stroke-width="31" stroke="#00dc82" fill="none" transform="rotate(92, 400, 400)"><path d="M385.8471499808203 211.44468969681C391.64535345217126 199.72827636417836 408.35466421846616 199.72827636417836 414.15286768981707 211.44468969681L593.8419092010686 574.5492869329262C599.0353436284304 585.0435299260084 591.399147553416 597.3426058623788 579.6906293780166 597.3426058623788H220.30938829262078C208.60087011722135 597.3426058623788 200.96467404220704 585.0435299260084 206.1581084695689 574.5492869329262L385.8471499808203 211.44468969681Z " filter="url(#nnneon-filter)"></path><path d="M454.8471499808203 211.44468969681C460.64535345217126 199.72827636417836 477.35466421846616 199.72827636417836 483.15286768981707 211.44468969681L662.8419092010686 574.5492869329262C668.0353436284304 585.0435299260084 660.399147553416 597.3426058623788 648.6906293780166 597.3426058623788H289.3093882926208C277.60087011722135 597.3426058623788 269.96467404220704 585.0435299260084 275.1581084695689 574.5492869329262L454.8471499808203 211.44468969681Z " filter="url(#nnneon-filter2)" opacity="0.26"></path><path d="M316.8471499808203 211.44468969681C322.64535345217126 199.72827636417836 339.35466421846616 199.72827636417836 345.15286768981707 211.44468969681L524.8419092010686 574.5492869329262C530.0353436284304 585.0435299260084 522.399147553416 597.3426058623788 510.69062937801664 597.3426058623788H151.30938829262078C139.60087011722135 597.3426058623788 131.96467404220704 585.0435299260084 137.1581084695689 574.5492869329262L316.8471499808203 211.44468969681Z " filter="url(#nnneon-filter2)" opacity="0.26"></path><path d="M385.8471499808203 211.44468969681C391.64535345217126 199.72827636417836 408.35466421846616 199.72827636417836 414.15286768981707 211.44468969681L593.8419092010686 574.5492869329262C599.0353436284304 585.0435299260084 591.399147553416 597.3426058623788 579.6906293780166 597.3426058623788H220.30938829262078C208.60087011722135 597.3426058623788 200.96467404220704 585.0435299260084 206.1581084695689 574.5492869329262L385.8471499808203 211.44468969681Z "></path></g></svg>