<svg xmlns="http://www.w3.org/2000/svg" version="1.1" xmlns:xlink="http://www.w3.org/1999/xlink" xmlns:svgjs="http://svgjs.dev/svgjs" viewBox="0 0 800 800"><defs><linearGradient x1="50%" y1="0%" x2="50%" y2="100%" id="nnneon-grad"><stop stop-color="#00dc82" stop-opacity="1" offset="0%"></stop><stop stop-color="#00dc82" stop-opacity="1" offset="100%"></stop></linearGradient><filter id="nnneon-filter" x="-100%" y="-100%" width="400%" height="400%" filterUnits="objectBoundingBox" primitiveUnits="userSpaceOnUse" color-interpolation-filters="sRGB">
	<feGaussianBlur stdDeviation="24 22" x="0%" y="0%" width="100%" height="100%" in="SourceGraphic" edgeMode="none" result="blur"></feGaussianBlur></filter><filter id="nnneon-filter2" x="-100%" y="-100%" width="400%" height="400%" filterUnits="objectBoundingBox" primitiveUnits="userSpaceOnUse" color-interpolation-filters="sRGB">
	<feGaussianBlur stdDeviation="10 17" x="0%" y="0%" width="100%" height="100%" in="SourceGraphic" edgeMode="none" result="blur"></feGaussianBlur></filter></defs><g stroke-width="20.5" stroke="url(#nnneon-grad)" fill="none"><path d="M387.1864055305593 229.28752991368245C392.4359299010407 218.67983088618473 407.56405269200843 218.67983088618473 412.8135770624898 229.28752991368245L575.4987962312443 558.0318455699105C580.2007803419505 567.5330272055911 573.2871910566433 578.668251966397 562.6866400743124 578.668251966397H237.3133425187367C226.7127915364057 578.668251966397 219.79920225109862 567.5330272055911 224.5011863618048 558.0318455699105L387.1864055305593 229.28752991368245Z " filter="url(#nnneon-filter)"></path><path d="M399.1864055305593 229.28752991368245C404.4359299010407 218.67983088618473 419.56405269200843 218.67983088618473 424.8135770624898 229.28752991368245L587.4987962312443 558.0318455699105C592.2007803419505 567.5330272055911 585.2871910566433 578.668251966397 574.6866400743124 578.668251966397H249.3133425187367C238.7127915364057 578.668251966397 231.79920225109862 567.5330272055911 236.5011863618048 558.0318455699105L399.1864055305593 229.28752991368245Z " filter="url(#nnneon-filter2)" opacity="0.25"></path><path d="M375.1864055305593 229.28752991368245C380.4359299010407 218.67983088618473 395.56405269200843 218.67983088618473 400.8135770624898 229.28752991368245L563.4987962312443 558.0318455699105C568.2007803419505 567.5330272055911 561.2871910566433 578.668251966397 550.6866400743124 578.668251966397H225.3133425187367C214.7127915364057 578.668251966397 207.79920225109862 567.5330272055911 212.5011863618048 558.0318455699105L375.1864055305593 229.28752991368245Z " filter="url(#nnneon-filter2)" opacity="0.25"></path><path d="M387.1864055305593 229.28752991368245C392.4359299010407 218.67983088618473 407.56405269200843 218.67983088618473 412.8135770624898 229.28752991368245L575.4987962312443 558.0318455699105C580.2007803419505 567.5330272055911 573.2871910566433 578.668251966397 562.6866400743124 578.668251966397H237.3133425187367C226.7127915364057 578.668251966397 219.79920225109862 567.5330272055911 224.5011863618048 558.0318455699105L387.1864055305593 229.28752991368245Z "></path></g></svg>