<svg xmlns="http://www.w3.org/2000/svg" version="1.1" xmlns:xlink="http://www.w3.org/1999/xlink" xmlns:svgjs="http://svgjs.dev/svgjs" viewBox="0 0 2400 800"><defs><linearGradient x1="50%" y1="0%" x2="50%" y2="100%" id="oooscillate-grad"><stop stop-color="#00dc82" stop-opacity="1" offset="0%"></stop><stop stop-color="#00ff97" stop-opacity="1" offset="100%"></stop></linearGradient></defs><g stroke-width="4.5" stroke="url(#oooscillate-grad)" fill="none" stroke-linecap="round"><path d="M 0 672 Q 600 135 1200 400 Q 1800 665 2400 672" opacity="1.00"></path><path d="M 0 648 Q 600 135 1200 400 Q 1800 665 2400 648" opacity="0.96"></path><path d="M 0 624 Q 600 135 1200 400 Q 1800 665 2400 624" opacity="0.93"></path><path d="M 0 600 Q 600 135 1200 400 Q 1800 665 2400 600" opacity="0.89"></path><path d="M 0 576 Q 600 135 1200 400 Q 1800 665 2400 576" opacity="0.86"></path><path d="M 0 552 Q 600 135 1200 400 Q 1800 665 2400 552" opacity="0.82"></path><path d="M 0 528 Q 600 135 1200 400 Q 1800 665 2400 528" opacity="0.79"></path><path d="M 0 504 Q 600 135 1200 400 Q 1800 665 2400 504" opacity="0.75"></path><path d="M 0 480 Q 600 135 1200 400 Q 1800 665 2400 480" opacity="0.72"></path><path d="M 0 456 Q 600 135 1200 400 Q 1800 665 2400 456" opacity="0.68"></path><path d="M 0 432 Q 600 135 1200 400 Q 1800 665 2400 432" opacity="0.65"></path><path d="M 0 408 Q 600 135 1200 400 Q 1800 665 2400 408" opacity="0.61"></path><path d="M 0 384 Q 600 135 1200 400 Q 1800 665 2400 384" opacity="0.58"></path><path d="M 0 360 Q 600 135 1200 400 Q 1800 665 2400 360" opacity="0.54"></path><path d="M 0 336 Q 600 135 1200 400 Q 1800 665 2400 336" opacity="0.51"></path><path d="M 0 312 Q 600 135 1200 400 Q 1800 665 2400 312" opacity="0.47"></path><path d="M 0 288 Q 600 135 1200 400 Q 1800 665 2400 288" opacity="0.44"></path><path d="M 0 264 Q 600 135 1200 400 Q 1800 665 2400 264" opacity="0.40"></path><path d="M 0 240 Q 600 135 1200 400 Q 1800 665 2400 240" opacity="0.37"></path><path d="M 0 216 Q 600 135 1200 400 Q 1800 665 2400 216" opacity="0.33"></path><path d="M 0 192 Q 600 135 1200 400 Q 1800 665 2400 192" opacity="0.30"></path><path d="M 0 168 Q 600 135 1200 400 Q 1800 665 2400 168" opacity="0.26"></path><path d="M 0 144 Q 600 135 1200 400 Q 1800 665 2400 144" opacity="0.23"></path><path d="M 0 120 Q 600 135 1200 400 Q 1800 665 2400 120" opacity="0.19"></path><path d="M 0 96 Q 600 135 1200 400 Q 1800 665 2400 96" opacity="0.16"></path><path d="M 0 72 Q 600 135 1200 400 Q 1800 665 2400 72" opacity="0.12"></path><path d="M 0 48 Q 600 135 1200 400 Q 1800 665 2400 48" opacity="0.09"></path></g></svg>