<svg xmlns="http://www.w3.org/2000/svg" version="1.1" xmlns:xlink="http://www.w3.org/1999/xlink" xmlns:svgjs="http://svgjs.dev/svgjs" viewBox="0 0 800 800" opacity="1"><defs><linearGradient gradientTransform="rotate(270)" x1="50%" y1="0%" x2="50%" y2="100%" id="sssquiggly-grad"><stop stop-color="#00dc82ff" stop-opacity="1" offset="0%"></stop><stop stop-color="#00ff97ff" stop-opacity="1" offset="100%"></stop></linearGradient></defs><g stroke-width="4.5" stroke="url(#sssquiggly-grad)" fill="none" stroke-linecap="round" transform="matrix(1,0,0,1,-5,336.9933547973633)"><path d="M10,10C24.583333333333332,14.375,48.75,34.75,80,31C111.25,27.25,126.66666666666666,-8.833333333333334,160,-8C193.33333333333334,-7.166666666666667,206.66666666666666,44.375,240,35C273.3333333333333,25.625,286.6666666666667,-52.791666666666664,320,-53C353.3333333333333,-53.208333333333336,366.6666666666667,25.666666666666664,400,34C433.3333333333333,42.333333333333336,446.6666666666667,-16.958333333333332,480,-13C513.3333333333334,-9.041666666666668,526.6666666666666,51.958333333333336,560,53C593.3333333333334,54.041666666666664,606.6666666666666,-4.666666666666667,640,-8C673.3333333333334,-11.333333333333332,686.6666666666666,38.875,720,37C753.3333333333334,35.125,783.3333333333334,-5.75,800,-17"></path><path d="M10,10C24.583333333333332,14.375,48.75,34.75,80,31C111.25,27.25,126.66666666666666,-8.833333333333334,160,-8C193.33333333333334,-7.166666666666667,206.66666666666666,44.375,240,35C273.3333333333333,25.625,286.6666666666667,-52.791666666666664,320,-53C353.3333333333333,-53.208333333333336,366.6666666666667,25.666666666666664,400,34C433.3333333333333,42.333333333333336,446.6666666666667,-16.958333333333332,480,-13C513.3333333333334,-9.041666666666668,526.6666666666666,51.958333333333336,560,53C593.3333333333334,54.041666666666664,606.6666666666666,-4.666666666666667,640,-8C673.3333333333334,-11.333333333333332,686.6666666666666,38.875,720,37C753.3333333333334,35.125,783.3333333333334,-5.75,800,-17" transform="matrix(1,0,0,1,0,126)"></path><path d="M10,10C24.583333333333332,14.375,48.75,34.75,80,31C111.25,27.25,126.66666666666666,-8.833333333333334,160,-8C193.33333333333334,-7.166666666666667,206.66666666666666,44.375,240,35C273.3333333333333,25.625,286.6666666666667,-52.791666666666664,320,-53C353.3333333333333,-53.208333333333336,366.6666666666667,25.666666666666664,400,34C433.3333333333333,42.333333333333336,446.6666666666667,-16.958333333333332,480,-13C513.3333333333334,-9.041666666666668,526.6666666666666,51.958333333333336,560,53C593.3333333333334,54.041666666666664,606.6666666666666,-4.666666666666667,640,-8C673.3333333333334,-11.333333333333332,686.6666666666666,38.875,720,37C753.3333333333334,35.125,783.3333333333334,-5.75,800,-17" transform="matrix(1,0,0,1,0,105)"></path><path d="M10,10C24.583333333333332,14.375,48.75,34.75,80,31C111.25,27.25,126.66666666666666,-8.833333333333334,160,-8C193.33333333333334,-7.166666666666667,206.66666666666666,44.375,240,35C273.3333333333333,25.625,286.6666666666667,-52.791666666666664,320,-53C353.3333333333333,-53.208333333333336,366.6666666666667,25.666666666666664,400,34C433.3333333333333,42.333333333333336,446.6666666666667,-16.958333333333332,480,-13C513.3333333333334,-9.041666666666668,526.6666666666666,51.958333333333336,560,53C593.3333333333334,54.041666666666664,606.6666666666666,-4.666666666666667,640,-8C673.3333333333334,-11.333333333333332,686.6666666666666,38.875,720,37C753.3333333333334,35.125,783.3333333333334,-5.75,800,-17" transform="matrix(1,0,0,1,0,84)"></path><path d="M10,10C24.583333333333332,14.375,48.75,34.75,80,31C111.25,27.25,126.66666666666666,-8.833333333333334,160,-8C193.33333333333334,-7.166666666666667,206.66666666666666,44.375,240,35C273.3333333333333,25.625,286.6666666666667,-52.791666666666664,320,-53C353.3333333333333,-53.208333333333336,366.6666666666667,25.666666666666664,400,34C433.3333333333333,42.333333333333336,446.6666666666667,-16.958333333333332,480,-13C513.3333333333334,-9.041666666666668,526.6666666666666,51.958333333333336,560,53C593.3333333333334,54.041666666666664,606.6666666666666,-4.666666666666667,640,-8C673.3333333333334,-11.333333333333332,686.6666666666666,38.875,720,37C753.3333333333334,35.125,783.3333333333334,-5.75,800,-17" transform="matrix(1,0,0,1,0,63)"></path><path d="M10,10C24.583333333333332,14.375,48.75,34.75,80,31C111.25,27.25,126.66666666666666,-8.833333333333334,160,-8C193.33333333333334,-7.166666666666667,206.66666666666666,44.375,240,35C273.3333333333333,25.625,286.6666666666667,-52.791666666666664,320,-53C353.3333333333333,-53.208333333333336,366.6666666666667,25.666666666666664,400,34C433.3333333333333,42.333333333333336,446.6666666666667,-16.958333333333332,480,-13C513.3333333333334,-9.041666666666668,526.6666666666666,51.958333333333336,560,53C593.3333333333334,54.041666666666664,606.6666666666666,-4.666666666666667,640,-8C673.3333333333334,-11.333333333333332,686.6666666666666,38.875,720,37C753.3333333333334,35.125,783.3333333333334,-5.75,800,-17" transform="matrix(1,0,0,1,0,42)"></path><path d="M10,10C24.583333333333332,14.375,48.75,34.75,80,31C111.25,27.25,126.66666666666666,-8.833333333333334,160,-8C193.33333333333334,-7.166666666666667,206.66666666666666,44.375,240,35C273.3333333333333,25.625,286.6666666666667,-52.791666666666664,320,-53C353.3333333333333,-53.208333333333336,366.6666666666667,25.666666666666664,400,34C433.3333333333333,42.333333333333336,446.6666666666667,-16.958333333333332,480,-13C513.3333333333334,-9.041666666666668,526.6666666666666,51.958333333333336,560,53C593.3333333333334,54.041666666666664,606.6666666666666,-4.666666666666667,640,-8C673.3333333333334,-11.333333333333332,686.6666666666666,38.875,720,37C753.3333333333334,35.125,783.3333333333334,-5.75,800,-17" transform="matrix(1,0,0,1,0,21)"></path></g></svg>